<svg xmlns="http://www.w3.org/2000/svg" width="20" height="23" viewBox="0 0 20 23">
    <path fill="#253C4F" fill-rule="nonzero" d="M17.545 6.295a10.084 10.084 0 0 1 1.808 3.035A9.81 9.81 0 0 1 20 12.857c0 1.816-.446 3.49-1.34 5.022a9.922 9.922 0 0 1-3.638 3.639c-1.532.893-3.207 1.34-5.022 1.34-1.815 0-3.49-.447-5.022-1.34a9.922 9.922 0 0 1-3.639-3.639C.446 16.347 0 14.673 0 12.857c0-1.726.41-3.326 1.228-4.799a10.07 10.07 0 0 1 3.348-3.594A9.632 9.632 0 0 1 9.24 2.902V1.429H8.214a.517.517 0 0 1-.38-.157.517.517 0 0 1-.155-.38V.537c0-.15.052-.276.156-.38A.517.517 0 0 1 8.215 0h3.57c.15 0 .276.052.38.156.104.104.156.23.156.38v.357a.517.517 0 0 1-.156.38.517.517 0 0 1-.38.156H10.67v1.428c2.232.149 4.196.967 5.893 2.455l.758-.803a.653.653 0 0 1 .402-.134c.149 0 .268.045.357.134l.268.268c.09.09.134.208.134.357a.653.653 0 0 1-.134.402l-.803.759zM10 21.429a8.273 8.273 0 0 0 4.286-1.161 8.735 8.735 0 0 0 3.125-3.125 8.273 8.273 0 0 0 1.16-4.286 8.273 8.273 0 0 0-1.16-4.286 8.735 8.735 0 0 0-3.125-3.125A8.273 8.273 0 0 0 10 4.286a8.273 8.273 0 0 0-4.286 1.16A8.735 8.735 0 0 0 2.59 8.571a8.273 8.273 0 0 0-1.16 4.286c0 1.548.386 2.976 1.16 4.286a8.735 8.735 0 0 0 3.125 3.125A8.273 8.273 0 0 0 10 21.428z"/>
</svg>
