<svg xmlns="http://www.w3.org/2000/svg" width="50" height="50" viewBox="0 0 50 50">
    <g fill="none" fill-rule="evenodd">
        <circle cx="25" cy="25" r="25" fill="#758DAA"/>
        <path fill="#FFF" fill-rule="nonzero" d="M25.5 13C33.509 13 40 18.195 40 24.607c0 6.412-6.491 11.607-14.5 11.607-2.175 0-4.231-.396-6.083-1.082C18.023 36.225 15.208 38 11.453 38c-.181 0-.34-.1-.413-.268a.439.439 0 0 1 .085-.485c.028-.028 2.396-2.534 3.104-5.346C12.212 29.908 11 27.375 11 24.607 11 18.195 17.491 13 25.5 13zm6.463 9.14a.608.608 0 0 0 .005-.864l-1.46-1.451a.632.632 0 0 0-.885-.006l-5.505 5.38-2.385-2.372a.632.632 0 0 0-.883-.006l-1.473 1.44a.61.61 0 0 0-.006.87l4.288 4.259c.244.245.64.245.884.005l7.42-7.254z"/>
    </g>
</svg>
