<svg xmlns="http://www.w3.org/2000/svg" width="50" height="50" viewBox="0 0 50 50">
    <g fill="none" fill-rule="evenodd">
        <circle cx="25" cy="25" r="25" fill="#3F5C75"/>
        <g fill="#FFF" fill-rule="nonzero">
            <path d="M36.979 33.645c.682-.138 1.17.687.724 1.246C34.688 38.689 30.14 41 25.154 41 16.226 41 9 33.61 9 24.502 9 14.192 18.155 6.406 28.119 8.28c.69.138.85 1.083.235 1.435-3.966 2.303-6.409 6.582-6.409 11.24 0 8.077 7.193 14.212 15.034 12.69z"/>
            <path d="M31.842 17.384l-1.289-2.578-2.578-1.289 2.578-1.289 1.29-2.578 1.288 2.578 2.578 1.29-2.578 1.288zM37.396 21.37l4.295 2.15-4.295 2.151-2.15 4.295-2.152-4.295-4.294-2.15 4.294-2.152 2.151-4.294z"/>
        </g>
    </g>
</svg>
