<svg xmlns="http://www.w3.org/2000/svg" width="50" height="50" viewBox="0 0 50 50">
    <g fill="none" fill-rule="evenodd">
        <circle cx="25" cy="25" r="25" fill="#F0EBD9"/>
        <path fill="#3F5C75" fill-rule="nonzero" d="M17.763 33.115l2.052-1.317 2.741 2.76-3.82 2.3a.917.917 0 0 1-1.403-.783v-2.177c0-.283.193-.633.43-.783zm23.878-11.273c.75.54 1.359 1.73 1.359 2.659 0 1.805-1.453 3.268-3.246 3.268h-5.92l-3.668 1.846v-1.36c0-2.87-1.914-5.425-4.653-6.213l-2.428-.699a.923.923 0 0 0-.503 1.776l2.428.698c1.957.563 3.324 2.388 3.324 4.437v3.207h5.5a1.84 1.84 0 0 1 1.834 1.846v.923a.92.92 0 0 1-.917.923H26.5c-.487 0-.953-.194-1.297-.54L14.238 23.57c-1.067.708-2.493.64-3.433-.305a2.783 2.783 0 0 1 0-3.916 2.736 2.736 0 0 1 3.89 0c.135.137.203.307.305.463 1.117-1.491 3.016-3.12 6-3.12 3.986 0 9.885 3.871 12.838 6.005.003-.182.015-.362.043-.537a3.48 3.48 0 0 1 .395-1.114c-.673-.405-1.418-.988-2.144-1.718-1.772-1.785-2.73-3.713-2.139-4.308.591-.594 2.506.37 4.278 2.154.348.351.654.706.934 1.057-.04-.136-.086-.267-.123-.407-.648-2.437-.52-4.59.287-4.807.806-.218 1.986 1.582 2.634 4.019.275 1.032.402 2.002.406 2.807l3.232 1.998zm-3.224 2.235a.92.92 0 0 0 .916-.923.92.92 0 0 0-.916-.923.92.92 0 0 0-.917.923c0 .51.41.923.917.923z"/>
    </g>
</svg>
