<svg xmlns="http://www.w3.org/2000/svg" width="25" height="20" viewBox="0 0 25 20">
    <path fill="#253C4F" fill-rule="nonzero" d="M24.543 13.996c.367.211.543.66.414 1.066a6.585 6.585 0 0 1-1.434 2.477.91.91 0 0 1-1.12.172l-.645-.371a5.045 5.045 0 0 1-.867.5v.742a.907.907 0 0 1-.711.887c-.465.105-.95.156-1.43.156s-.961-.05-1.43-.156a.904.904 0 0 1-.71-.887v-.742a5.045 5.045 0 0 1-.868-.5l-.644.37a.909.909 0 0 1-1.121-.171 6.469 6.469 0 0 1-1.434-2.48.914.914 0 0 1 .41-1.059l.649-.371a5.347 5.347 0 0 1 0-1l-.645-.371a.913.913 0 0 1-.414-1.063c.285-.91.781-1.77 1.434-2.476a.898.898 0 0 1 1.12-.172l.645.37c.274-.194.563-.362.867-.5v-.741c0-.426.293-.793.711-.887a6.54 6.54 0 0 1 2.86 0c.418.094.71.457.71.887v.742c.305.137.594.305.868.5l.644-.371a.9.9 0 0 1 1.121.172 6.469 6.469 0 0 1 1.434 2.48.9.9 0 0 1-.41 1.055l-.649.371c.032.332.032.668 0 1l.645.371zm-2.016.281c.203-1.11.192-1.258 0-2.304l1.149-.664a5.213 5.213 0 0 0-.89-1.543l-1.15.664c-.816-.7-.949-.782-1.995-1.153V7.95a5.451 5.451 0 0 0-1.782 0v1.328c-1.039.368-1.16.438-1.996 1.153l-1.148-.664c-.383.46-.688.984-.89 1.543l1.148.664c-.204 1.109-.192 1.257 0 2.304l-1.149.664c.203.559.508 1.082.89 1.543l1.15-.664c.816.696.945.782 1.995 1.153V18.3a5.245 5.245 0 0 0 1.782 0v-1.328c1.039-.368 1.16-.438 1.996-1.153l1.148.664c.383-.457.688-.984.89-1.543l-1.148-.664zm-3.777-3.672c1.39 0 2.52 1.133 2.52 2.52a2.523 2.523 0 0 1-2.52 2.52 2.523 2.523 0 0 1-2.52-2.52 2.523 2.523 0 0 1 2.52-2.52zm0 3.79c.7 0 1.27-.57 1.27-1.27 0-.7-.57-1.27-1.27-1.27-.7 0-1.27.57-1.27 1.27 0 .7.57 1.27 1.27 1.27zM8.75 10a5 5 0 1 1 0-10 5 5 0 0 1 0 10zm0-8.75A3.756 3.756 0 0 0 5 5a3.756 3.756 0 0 0 3.75 3.75A3.756 3.756 0 0 0 12.5 5a3.756 3.756 0 0 0-3.75-3.75zm-6.875 17.5H13.34A7.663 7.663 0 0 0 15.039 20H1.875A1.875 1.875 0 0 1 0 18.125V16.5a5.251 5.251 0 0 1 5.25-5.25c1.125 0 1.66.625 3.5.625 1.195 0 2.023-.313 2.371-.418-.094.43-.144.875-.164 1.328a7.856 7.856 0 0 1-2.207.34c-1.973 0-2.734-.625-3.5-.625-2.207 0-4 1.793-4 4v1.625c0 .344.281.625.625.625z"/>
</svg>
