<?xml version="1.0" encoding="UTF-8"?>
<!DOCTYPE svg PUBLIC "-//W3C//DTD SVG 1.1//EN" "http://www.w3.org/Graphics/SVG/1.1/DTD/svg11.dtd">
<svg version="1.1" xmlns="http://www.w3.org/2000/svg" xmlns:xlink="http://www.w3.org/1999/xlink" x="0" y="0" width="192.419" height="170.182" viewBox="0, 0, 192.419, 170.182">
  <g id="Background">
    <rect x="0" y="0" width="192.419" height="170.182" fill="#000000" fill-opacity="0"/>
  </g>
  <g id="feather_original" display="none">
    <g id="feather">
      <path d="M8.557,163.058 L10.828,153.987 L4.565,151.515 L0.263,158.605 C0.263,158.605 2.634,165.039 -0,170.182 C0.003,170.182 3.299,164.567 8.557,163.058 z M4.35,158.896 C5.121,158.58 6.009,158.94 6.328,159.697 C6.649,160.454 6.283,161.326 5.512,161.642 C4.741,161.957 3.852,161.597 3.534,160.84 C3.21,160.08 3.576,159.208 4.35,158.896 z" fill="#000000" id="path3400"/>
      <path d="M74.267,57.846 C56.231,72.638 32.619,103.109 12.594,138.703 L12.583,138.689 L9.082,144.866 L12.815,146.302 L14.787,141.105 C25.47,121.849 54.451,71.56 107.444,38.148 C107.444,38.148 127.173,26.397 146.612,10.147 C141.879,14.102 132.543,19.061 127.481,22.26 C114.194,30.655 97.798,38.544 74.267,57.846 z" fill="#000000" id="path3402"/>
      <path d="M9.985,110.618 C5.883,125.114 6.118,136.155 7.705,139.189 L10.186,139.189 C17.036,125 50.029,73.602 70.565,57.513 C91.842,40.843 108.255,31.144 122.058,24.07 C126.905,21.587 131.878,18.223 136.362,14.851 C141.807,10.557 147.327,5.964 152.16,1.469 L138.15,10.658 L144.396,1.103 L132.47,13.231 L140.231,0 C121.871,1.657 104.832,10.842 104.832,10.842 C98.016,18.927 92.526,31.789 92.526,31.789 C92.336,25.358 96.692,15.619 96.692,15.619 C93.473,17.089 81.245,24.073 81.245,24.073 C75.264,29.035 73.406,42.081 73.406,42.081 C72.269,36.935 76.245,27.015 76.245,27.015 C59.016,36.938 46.71,53.842 46.71,53.842 C38.192,70.562 45.196,83.609 42.545,80.486 C39.894,77.362 40.463,65.97 40.463,65.97 C22.478,83.243 20.587,91.509 20.587,91.509 C17.558,98.86 14.907,118.521 14.907,118.521 C13.203,116.683 14.907,106.394 14.907,106.394 C10.552,115.582 12.636,124.218 12.636,124.218 C10.554,123.48 9.985,110.618 9.985,110.618 z" fill="#000000" id="path3404"/>
      <path d="M152.163,7.289 C152.163,7.289 145.237,13.999 136.365,20.67 C122.455,31.641 109.062,40.609 109.062,40.609 C56.594,71.613 27.358,122.209 17.695,139.558 L22.833,139.558 C24.649,138.102 27.375,137.004 38.762,133.708 C53.15,129.542 61.732,120.846 61.732,120.846 C61.732,120.846 48.607,128.196 42.422,127.461 C36.237,126.726 27.926,129.054 27.926,129.054 C27.926,129.054 24.752,127.584 40.402,125.257 C56.052,122.93 81.799,105.414 81.799,105.414 C81.799,105.414 71.954,109.456 67.411,109.087 C62.869,108.718 51.635,109.087 51.635,109.087 C59.081,107.372 66.023,108.352 77.382,104.064 C88.741,99.776 88.11,100.145 88.11,100.145 C100.983,95.856 106.33,82.505 106.33,82.505 C104.103,83.363 87.098,85.444 80.044,83.363 C72.99,81.282 60.972,83.363 60.972,83.363 C72.331,79.566 74.856,81.282 77.63,81.159 C80.407,81.036 89.369,81.771 107.165,75.647 C124.961,69.523 130.009,61.927 130.009,61.927 L118.007,63.531 C125.844,62.212 134.677,57.027 134.677,57.027 C129.249,58.497 120.793,59.231 120.793,59.231 C130.763,57.027 136.317,53.965 136.317,53.965 C145.656,46.861 147.802,36.326 147.802,36.326 C134.549,40.857 124.075,38.776 124.075,38.776 C142.251,37.553 147.299,32.895 149.822,31.795 C152.347,30.691 153.386,26.129 153.386,26.129 C144.204,29.437 133.792,29.987 133.792,29.987 C145.056,28.241 154.708,22.545 154.708,22.545 L154.708,16.843 C150.352,19.324 142.689,21.254 142.689,21.254 L154.616,13.538 C155.286,9.677 152.163,7.289 152.163,7.289 z" fill="#000000" id="path3406"/>
      <path d="M5.029,149.246 L12.122,152.087 L13.443,148.947 L6.35,146.106 z" fill="#000000" id="polygon3408"/>
    </g>
  </g>
  <g id="text">
    <text transform="matrix(0, -1, 1, 0, 177.02, 89.473)" id="indigo" display="none">
      <tspan x="-75.944" y="15" font-family="GillSans" font-size="45.345" kerning="-2.015" fill="#000000">INDIGO</tspan>
    </text>
    <path d="M161.089,161.963 L161.089,157.535 L192.02,157.535 L192.02,161.963 z" fill="#000000"/>
    <path d="M161.089,128.11 L161.089,123.903 L192.02,123.903 L192.02,127.712 L168.219,148.391 L192.02,148.391 L192.02,152.554 L161.089,152.554 L161.089,148.967 L185.09,128.11 z" fill="#000000"/>
    <path d="M191.976,119.254 L161.089,119.254 L161.089,108.826 Q161.089,102.516 162.982,98.84 Q164.875,95.165 168.551,92.995 Q172.226,90.825 176.566,90.825 Q179.666,90.825 182.5,92.021 Q185.334,93.216 187.481,95.431 Q189.695,97.689 190.825,100.678 Q191.511,102.427 191.743,103.888 Q191.976,105.35 191.976,109.468 z M165.03,109.291 L165.03,114.826 L188.035,114.826 L188.035,109.158 Q188.035,105.837 187.581,103.999 Q187.127,102.161 186.43,100.933 Q185.732,99.704 184.714,98.685 Q181.393,95.408 176.322,95.408 Q171.341,95.408 168.197,98.774 Q167.023,100.014 166.27,101.619 Q165.518,103.224 165.274,104.663 Q165.03,106.102 165.03,109.291 z" fill="#000000"/>
    <path d="M161.089,87.261 L161.089,82.833 L192.02,82.833 L192.02,87.261 z" fill="#000000"/>
    <path d="M176.787,61.268 L176.787,50.884 L189.895,50.884 Q192.374,56.596 192.374,62.22 Q192.374,69.903 187.891,74.497 Q183.407,79.092 176.831,79.092 Q169.901,79.092 165.296,74.331 Q160.691,69.571 160.691,62.397 Q160.691,59.785 161.255,57.438 Q161.82,55.091 163.326,51.504 L167.842,51.504 Q164.632,57.039 164.632,62.486 Q164.632,67.556 168.086,71.032 Q171.54,74.508 176.566,74.508 Q181.835,74.508 185.179,71.032 Q188.522,67.556 188.522,62.087 Q188.522,59.43 187.304,55.733 L187.171,55.312 L180.728,55.312 L180.728,61.268 z" fill="#000000"/>
    <path d="M160.647,31.246 Q160.647,24.072 165.185,19.301 Q169.724,14.529 176.566,14.529 Q183.407,14.529 187.891,19.345 Q192.374,24.161 192.374,31.489 Q192.374,38.486 187.891,43.146 Q183.407,47.807 176.654,47.807 Q169.724,47.807 165.185,43.113 Q160.647,38.419 160.647,31.246 z M164.853,31.069 Q164.853,36.382 168.174,39.803 Q171.496,43.224 176.654,43.224 Q181.658,43.224 184.979,39.792 Q188.3,36.36 188.3,31.201 Q188.3,26.02 184.913,22.555 Q181.525,19.09 176.477,19.09 Q171.562,19.09 168.208,22.555 Q164.853,26.02 164.853,31.069 z" fill="#000000"/>
  </g>
  <g id="graphic">
    <path d="M155.555,83.443 C156.029,126.223 121.77,161.304 78.99,161.844 C36.212,162.384 1.076,128.177 0.472,85.4 C-0.132,42.622 34.02,7.436 76.797,6.765 C119.575,6.094 154.812,40.194 155.549,82.969" fill="#144588" id="dot"/>
    <g id="feather_inside">
      <path d="M18.676,134.225 C31.689,111.679 59.895,68.127 107.445,38.147 C107.445,38.147 116.13,32.973 127.648,24.748 C127.053,24.252 126.457,23.757 125.847,23.279 C112.851,31.313 96.844,39.326 74.267,57.845 C57.428,71.656 35.73,99.134 16.627,131.688 C17.292,132.549 17.976,133.394 18.676,134.225 z" fill="#FFFFFF"/>
      <path d="M124.868,22.536 C118.695,17.846 111.807,14.061 104.392,11.377 C97.781,19.481 92.526,31.789 92.526,31.789 C92.336,25.358 96.691,15.619 96.691,15.619 C93.473,17.088 81.245,24.073 81.245,24.073 C75.264,29.035 73.406,42.081 73.406,42.081 C72.269,36.935 76.244,27.015 76.244,27.015 C59.016,36.938 46.71,53.842 46.71,53.842 C38.192,70.562 45.196,83.609 42.545,80.485 C39.894,77.362 40.464,65.969 40.464,65.969 C22.478,83.242 20.587,91.509 20.587,91.509 C17.559,98.859 14.907,118.521 14.907,118.521 C13.203,116.683 14.907,106.394 14.907,106.394 C10.552,115.582 12.636,124.218 12.636,124.218 C10.555,123.48 9.985,110.618 9.985,110.618 C9.251,113.213 8.661,115.692 8.187,118.04 C10.205,122.21 12.589,126.166 15.29,129.877 C27.224,109.533 53.297,71.042 70.566,57.513 C91.843,40.843 108.255,31.144 122.059,24.07 C122.991,23.592 123.93,23.073 124.868,22.536 z" fill="#FFFFFF"/>
      <path d="M120.793,59.231 C130.764,57.027 136.317,53.965 136.317,53.965 C140.149,51.05 142.768,47.559 144.526,44.453 C143.25,42.328 141.877,40.272 140.411,38.286 C130.858,40.12 124.075,38.775 124.075,38.775 C130.585,38.337 135.404,37.457 139.033,36.459 C136.101,32.725 132.84,29.262 129.284,26.126 C118.236,34.463 109.061,40.607 109.061,40.607 C60.108,69.534 31.385,115.507 19.907,135.628 C20.996,136.86 22.119,138.059 23.283,139.219 C25.132,137.915 28.268,136.744 38.761,133.706 C53.148,129.541 61.731,120.844 61.731,120.844 C61.731,120.844 48.606,128.194 42.421,127.459 C36.236,126.724 27.925,129.051 27.925,129.051 C27.925,129.051 24.751,127.582 40.402,125.254 C56.053,122.926 81.799,105.411 81.799,105.411 C81.799,105.411 71.954,109.453 67.412,109.085 C62.869,108.716 51.636,109.085 51.636,109.085 C59.081,107.37 66.023,108.35 77.382,104.062 C88.741,99.774 88.11,100.143 88.11,100.143 C100.983,95.855 106.33,82.504 106.33,82.504 C104.103,83.362 87.098,85.443 80.044,83.362 C72.99,81.281 60.972,83.362 60.972,83.362 C72.331,79.565 74.857,81.281 77.631,81.158 C80.408,81.035 89.37,81.77 107.166,75.646 C124.962,69.522 130.01,61.926 130.01,61.926 L118.008,63.53 C125.844,62.211 134.678,57.026 134.678,57.026 C129.249,58.497 120.793,59.231 120.793,59.231 z" fill="#FFFFFF"/>
    </g>
    <g id="feather_outside">
      <path d="M0.263,158.605 C0.263,158.605 2.635,165.039 -0,170.182 C0.003,170.182 3.299,164.567 8.557,163.058 L10.828,153.987 L4.565,151.515 L0.263,158.605 z M6.328,159.697 C6.649,160.454 6.283,161.326 5.512,161.641 C4.741,161.957 3.853,161.596 3.534,160.839 C3.21,160.079 3.576,159.208 4.35,158.895 C5.121,158.58 6.009,158.94 6.328,159.697 z" fill="#000000"/>
      <path d="M5.029,149.246 L12.122,152.087 L13.443,148.947 L6.35,146.106 z" fill="#000000" id="polygon3408"/>
      <path d="M146.612,10.147 C141.88,14.103 132.543,19.062 127.481,22.26 C126.942,22.6 126.396,22.94 125.847,23.28 C126.457,23.759 127.053,24.253 127.648,24.749 C133.494,20.575 140.068,15.618 146.612,10.147 z" fill="#000000"/>
      <path d="M12.594,138.703 L12.583,138.689 L9.083,144.866 L12.815,146.302 L14.787,141.106 C15.884,139.128 17.186,136.807 18.676,134.226 C17.976,133.395 17.292,132.55 16.627,131.689 C15.269,134.003 13.923,136.341 12.594,138.703 z" fill="#000000"/>
      <path d="M136.362,14.851 C141.807,10.557 147.327,5.964 152.16,1.469 L138.15,10.657 L144.397,1.103 L132.47,13.231 L140.231,-0 C121.871,1.657 104.832,10.842 104.832,10.842 C104.684,11.017 104.538,11.197 104.392,11.377 C111.806,14.061 118.694,17.846 124.868,22.536 C128.802,20.283 132.741,17.574 136.362,14.851 z" fill="#000000"/>
      <path d="M7.705,139.189 L10.186,139.189 C11.276,136.932 13.032,133.726 15.29,129.877 C12.589,126.166 10.206,122.21 8.187,118.04 C6.016,128.806 6.402,136.698 7.705,139.189 z" fill="#000000"/>
      <path d="M147.802,36.326 C145.212,37.211 142.731,37.842 140.411,38.287 C141.878,40.272 143.251,42.329 144.526,44.454 C147.054,39.99 147.802,36.326 147.802,36.326 z" fill="#000000"/>
      <path d="M17.695,139.558 L22.833,139.558 C22.976,139.444 23.127,139.332 23.285,139.221 C22.121,138.061 20.998,136.861 19.909,135.63 C19.085,137.074 18.342,138.396 17.695,139.558 z" fill="#000000"/>
      <path d="M139.034,36.46 C145.537,34.672 148.203,32.501 149.822,31.794 C152.347,30.69 153.387,26.128 153.387,26.128 C144.204,29.436 133.792,29.986 133.792,29.986 C145.056,28.24 154.708,22.544 154.708,22.544 L154.708,16.842 C150.353,19.323 142.69,21.253 142.69,21.253 L154.616,13.537 C155.286,9.676 152.163,7.288 152.163,7.288 C152.163,7.288 145.237,13.998 136.365,20.67 C133.967,22.561 131.587,24.391 129.285,26.127 C132.841,29.263 136.101,32.726 139.034,36.46 z" fill="#000000"/>
      <path d="M5.029,149.246 L12.122,152.087 L13.443,148.947 L6.35,146.106 z" fill="#000000"/>
    </g>
  </g>
  <g id="inverse" display="none">
    <path d="M-2.468,-1.763 L194.605,-1.763 L194.605,172.747 L-2.468,172.747 L-2.468,-1.763 z" fill="#770029" display="none"/>
    <path d="M155.555,83.443 C156.029,126.223 121.77,161.304 78.99,161.844 C36.212,162.384 1.076,128.177 0.472,85.4 C-0.132,42.622 34.02,7.436 76.797,6.765 C119.575,6.094 154.812,40.194 155.549,82.969" fill="#FFFFFF" id="dot"/>
    <g id="text">
      <path d="M161.089,161.963 L161.089,157.535 L192.02,157.535 L192.02,161.963 z" fill="#FFFFFF"/>
      <path d="M161.089,128.11 L161.089,123.903 L192.02,123.903 L192.02,127.712 L168.219,148.391 L192.02,148.391 L192.02,152.554 L161.089,152.554 L161.089,148.967 L185.09,128.11 z" fill="#FFFFFF"/>
      <path d="M191.976,119.254 L161.089,119.254 L161.089,108.826 Q161.089,102.516 162.982,98.84 Q164.875,95.165 168.551,92.995 Q172.226,90.825 176.566,90.825 Q179.666,90.825 182.5,92.021 Q185.334,93.216 187.481,95.431 Q189.695,97.689 190.825,100.678 Q191.511,102.427 191.743,103.888 Q191.976,105.35 191.976,109.468 z M165.03,109.291 L165.03,114.826 L188.035,114.826 L188.035,109.158 Q188.035,105.837 187.581,103.999 Q187.127,102.161 186.43,100.933 Q185.732,99.704 184.714,98.685 Q181.393,95.408 176.322,95.408 Q171.341,95.408 168.197,98.774 Q167.023,100.014 166.27,101.619 Q165.518,103.224 165.274,104.663 Q165.03,106.102 165.03,109.291 z" fill="#FFFFFF"/>
      <path d="M161.089,87.261 L161.089,82.833 L192.02,82.833 L192.02,87.261 z" fill="#FFFFFF"/>
      <path d="M176.787,61.268 L176.787,50.884 L189.895,50.884 Q192.374,56.596 192.374,62.22 Q192.374,69.903 187.891,74.497 Q183.407,79.092 176.831,79.092 Q169.901,79.092 165.296,74.331 Q160.691,69.571 160.691,62.397 Q160.691,59.785 161.255,57.438 Q161.82,55.091 163.326,51.504 L167.842,51.504 Q164.632,57.039 164.632,62.486 Q164.632,67.556 168.086,71.032 Q171.54,74.508 176.566,74.508 Q181.835,74.508 185.179,71.032 Q188.522,67.556 188.522,62.087 Q188.522,59.43 187.304,55.733 L187.171,55.312 L180.728,55.312 L180.728,61.268 z" fill="#FFFFFF"/>
      <path d="M160.647,31.246 Q160.647,24.072 165.185,19.301 Q169.724,14.529 176.566,14.529 Q183.407,14.529 187.891,19.345 Q192.374,24.161 192.374,31.489 Q192.374,38.486 187.891,43.146 Q183.407,47.807 176.654,47.807 Q169.724,47.807 165.185,43.113 Q160.647,38.419 160.647,31.246 z M164.853,31.069 Q164.853,36.382 168.174,39.803 Q171.496,43.224 176.654,43.224 Q181.658,43.224 184.979,39.792 Q188.3,36.36 188.3,31.201 Q188.3,26.02 184.913,22.555 Q181.525,19.09 176.477,19.09 Q171.562,19.09 168.208,22.555 Q164.853,26.02 164.853,31.069 z" fill="#FFFFFF"/>
    </g>
    <g id="feather_inside">
      <path d="M18.676,134.225 C31.689,111.679 59.895,68.127 107.445,38.147 C107.445,38.147 116.13,32.973 127.648,24.748 C127.053,24.252 126.457,23.757 125.847,23.279 C112.851,31.313 96.844,39.326 74.267,57.845 C57.428,71.656 35.73,99.134 16.627,131.688 C17.292,132.549 17.976,133.394 18.676,134.225 z" fill="#144588"/>
      <path d="M124.868,22.536 C118.695,17.846 111.807,14.061 104.392,11.377 C97.781,19.481 92.526,31.789 92.526,31.789 C92.336,25.358 96.691,15.619 96.691,15.619 C93.473,17.088 81.245,24.073 81.245,24.073 C75.264,29.035 73.406,42.081 73.406,42.081 C72.269,36.935 76.244,27.015 76.244,27.015 C59.016,36.938 46.71,53.842 46.71,53.842 C38.192,70.562 45.196,83.609 42.545,80.485 C39.894,77.362 40.464,65.969 40.464,65.969 C22.478,83.242 20.587,91.509 20.587,91.509 C17.559,98.859 14.907,118.521 14.907,118.521 C13.203,116.683 14.907,106.394 14.907,106.394 C10.552,115.582 12.636,124.218 12.636,124.218 C10.555,123.48 9.985,110.618 9.985,110.618 C9.251,113.213 8.661,115.692 8.187,118.04 C10.205,122.21 12.589,126.166 15.29,129.877 C27.224,109.533 53.297,71.042 70.566,57.513 C91.843,40.843 108.255,31.144 122.059,24.07 C122.991,23.592 123.93,23.073 124.868,22.536 z" fill="#144588"/>
      <path d="M120.793,59.231 C130.764,57.027 136.317,53.965 136.317,53.965 C140.149,51.05 142.768,47.559 144.526,44.453 C143.25,42.328 141.877,40.272 140.411,38.286 C130.858,40.12 124.075,38.775 124.075,38.775 C130.585,38.337 135.404,37.457 139.033,36.459 C136.101,32.725 132.84,29.262 129.284,26.126 C118.236,34.463 109.061,40.607 109.061,40.607 C60.108,69.534 31.385,115.507 19.907,135.628 C20.996,136.86 22.119,138.059 23.283,139.219 C25.132,137.915 28.268,136.744 38.761,133.706 C53.148,129.541 61.731,120.844 61.731,120.844 C61.731,120.844 48.606,128.194 42.421,127.459 C36.236,126.724 27.925,129.051 27.925,129.051 C27.925,129.051 24.751,127.582 40.402,125.254 C56.053,122.926 81.799,105.411 81.799,105.411 C81.799,105.411 71.954,109.453 67.412,109.085 C62.869,108.716 51.636,109.085 51.636,109.085 C59.081,107.37 66.023,108.35 77.382,104.062 C88.741,99.774 88.11,100.143 88.11,100.143 C100.983,95.855 106.33,82.504 106.33,82.504 C104.103,83.362 87.098,85.443 80.044,83.362 C72.99,81.281 60.972,83.362 60.972,83.362 C72.331,79.565 74.857,81.281 77.631,81.158 C80.408,81.035 89.37,81.77 107.166,75.646 C124.962,69.522 130.01,61.926 130.01,61.926 L118.008,63.53 C125.844,62.211 134.678,57.026 134.678,57.026 C129.249,58.497 120.793,59.231 120.793,59.231 z" fill="#144588"/>
    </g>
    <g id="feather_outside">
      <path d="M0.263,158.605 C0.263,158.605 2.635,165.039 -0,170.182 C0.003,170.182 3.299,164.567 8.557,163.058 L10.828,153.987 L4.565,151.515 L0.263,158.605 z M6.328,159.697 C6.649,160.454 6.283,161.326 5.512,161.641 C4.741,161.957 3.853,161.596 3.534,160.839 C3.21,160.079 3.576,159.208 4.35,158.895 C5.121,158.58 6.009,158.94 6.328,159.697 z" fill="#FFFFFF"/>
      <path d="M5.029,149.246 L12.122,152.087 L13.443,148.947 L6.35,146.106 z" fill="#FFFFFF" id="polygon3408"/>
      <path d="M146.612,10.147 C141.88,14.103 132.543,19.062 127.481,22.26 C126.942,22.6 126.396,22.94 125.847,23.28 C126.457,23.759 127.053,24.253 127.648,24.749 C133.494,20.575 140.068,15.618 146.612,10.147 z" fill="#FFFFFF"/>
      <path d="M12.594,138.703 L12.583,138.689 L9.083,144.866 L12.815,146.302 L14.787,141.106 C15.884,139.128 17.186,136.807 18.676,134.226 C17.976,133.395 17.292,132.55 16.627,131.689 C15.269,134.003 13.923,136.341 12.594,138.703 z" fill="#FFFFFF"/>
      <path d="M136.362,14.851 C141.807,10.557 147.327,5.964 152.16,1.469 L138.15,10.657 L144.397,1.103 L132.47,13.231 L140.231,-0 C121.871,1.657 104.832,10.842 104.832,10.842 C104.684,11.017 104.538,11.197 104.392,11.377 C111.806,14.061 118.694,17.846 124.868,22.536 C128.802,20.283 132.741,17.574 136.362,14.851 z" fill="#FFFFFF"/>
      <path d="M7.705,139.189 L10.186,139.189 C11.276,136.932 13.032,133.726 15.29,129.877 C12.589,126.166 10.206,122.21 8.187,118.04 C6.016,128.806 6.402,136.698 7.705,139.189 z" fill="#FFFFFF"/>
      <path d="M147.802,36.326 C145.212,37.211 142.731,37.842 140.411,38.287 C141.878,40.272 143.251,42.329 144.526,44.454 C147.054,39.99 147.802,36.326 147.802,36.326 z" fill="#FFFFFF"/>
      <path d="M17.695,139.558 L22.833,139.558 C22.976,139.444 23.127,139.332 23.285,139.221 C22.121,138.061 20.998,136.861 19.909,135.63 C19.085,137.074 18.342,138.396 17.695,139.558 z" fill="#FFFFFF"/>
      <path d="M139.034,36.46 C145.537,34.672 148.203,32.501 149.822,31.794 C152.347,30.69 153.387,26.128 153.387,26.128 C144.204,29.436 133.792,29.986 133.792,29.986 C145.056,28.24 154.708,22.544 154.708,22.544 L154.708,16.842 C150.353,19.323 142.69,21.253 142.69,21.253 L154.616,13.537 C155.286,9.676 152.163,7.288 152.163,7.288 C152.163,7.288 145.237,13.998 136.365,20.67 C133.967,22.561 131.587,24.391 129.285,26.127 C132.841,29.263 136.101,32.726 139.034,36.46 z" fill="#FFFFFF"/>
      <path d="M5.029,149.246 L12.122,152.087 L13.443,148.947 L6.35,146.106 z" fill="#FFFFFF"/>
    </g>
  </g>
</svg>
