<svg xmlns="http://www.w3.org/2000/svg" width="50" height="50" viewBox="0 0 50 50">
    <g fill="none" fill-rule="evenodd">
        <circle cx="25" cy="25" r="25" fill="#253C4F"/>
        <path fill="#FFF" fill-rule="nonzero" d="M22.2 27.063c0 2.243-2.955 4.062-6.6 4.062-3.645 0-6.6-1.819-6.6-4.063h.001c0-.795-.107-.368 4.385-9.217.912-1.795 3.518-1.792 4.428 0 4.454 8.774 4.385 8.396 4.385 9.218h.001zm-6.6-8.125l-3.713 7.312h7.425L15.6 18.937zm26.399 8.125H42c0 2.243-2.955 4.062-6.6 4.062-3.645 0-6.6-1.819-6.6-4.063h.001c0-.795-.107-.368 4.385-9.217.912-1.795 3.518-1.792 4.428 0 4.454 8.774 4.385 8.396 4.385 9.218zm-10.312-.813h7.425L35.4 18.937l-3.712 7.313zm4.538 6.5c.456 0 .825.364.825.813v1.624c0 .45-.37.813-.825.813h-21.45a.819.819 0 0 1-.825-.813v-1.624c0-.45.37-.813.825-.813h9.075V17.782a4.08 4.08 0 0 1-2.392-2.907h-6.683a.819.819 0 0 1-.825-.813v-1.624c0-.45.37-.813.825-.813h7.444a4.126 4.126 0 0 1 6.562 0h7.444c.456 0 .825.364.825.813v1.624c0 .45-.37.813-.825.813h-6.683a4.08 4.08 0 0 1-2.392 2.907V32.75h9.075z"/>
    </g>
</svg>
