<svg xmlns="http://www.w3.org/2000/svg" width="15" height="20" viewBox="0 0 15 20">
    <path fill="#253C4F" fill-rule="nonzero" d="M13.125 10C14.16 10 15 10.84 15 11.875v6.25C15 19.16 14.16 20 13.125 20H1.875A1.875 1.875 0 0 1 0 18.125v-6.25C0 10.84.84 10 1.875 10H2.5V6.25C2.5 2.797 4.062-.012 7.52 0c3.453.012 4.98 2.856 4.98 6.309v.722a.47.47 0 0 1-.469.47h-.312a.47.47 0 0 1-.469-.47v-.78c0-2.759-.992-5-3.75-5s-3.75 2.241-3.75 5V10h9.375zm.625 8.125v-6.25a.627.627 0 0 0-.625-.625H1.875a.627.627 0 0 0-.625.625v6.25c0 .344.281.625.625.625h11.25a.627.627 0 0 0 .625-.625z"/>
</svg>
