<svg xmlns="http://www.w3.org/2000/svg" width="50" height="50" viewBox="0 0 50 50">
    <g fill="none" fill-rule="evenodd">
        <circle cx="25" cy="25" r="25" fill="#758DAA"/>
        <path fill="#FFF" d="M31.953 22.615l.003-.001c.106.25.207.503.32.75.193.422.233 1.047.602 1.22.38.179.938-.005 1.416-.05.933-.09 1.864-.2 2.733-.59.136-.06.329-.066.14-.325-.806-1.104-1.584-2.228-2.371-3.345-.094-.133-.196-.206-.379-.151-.977.29-1.987.373-2.996.437-.308.02-.3.117-.197.347.253.565.487 1.138.729 1.708zm-3.146-7.377c-1.996.142-3.993.273-5.928.837-.071-.047-.128-.008-.184.03a.426.426 0 0 0 .025.341l.163.383.294.685c-.006.01-.017.022-.015.025.014.019.03.035.046.052l.241.569a159.933 159.933 0 0 0 .278.657l.288.676.196.465.19.444.41.96c-.004.008-.014.02-.012.023.013.018.028.034.043.05.048.084.12.123.216.114l.001-.003c1.956-.573 3.978-.72 6.038-.877l-2.31-5.44c1.097-.093 2.198-.147 3.272-.407.215-.053.409-.084.351-.407-.255-1.427-.493-2.857-.73-4.287-.04-.231-.103-.296-.349-.19-1.021.443-2.108.612-3.208.731-.394.043-.806-.001-1.195.143l1.879 4.426zm-8.873 8.754c-.01-.048-.013-.1-.032-.145-.72-1.718-1.446-3.435-2.163-5.155-.122-.293-.232-.151-.388-.04-1.18.846-2.24 1.829-3.277 2.844-.197.193-.194.351-.088.595.688 1.593 1.359 3.193 2.04 4.789.033.079.023.207.188.213.746-.755 1.515-1.513 2.363-2.176.433-.34.803-.78 1.36-.937.158.117.186.307.256.47.5 1.17 1.001 2.34 1.485 3.515.12.29.232.387.515.193 1.473-1.011 3.08-1.746 4.783-2.269.253-.077.2-.194.115-.356-.53-1.384-1.123-2.74-1.727-4.092-.067-.072-.147-.108-.244-.089l-.002.004c-1.185.364-2.337.814-3.41 1.436-.616.358-1.29.642-1.774 1.2zm.966-12.298c-.22-.165-.429-.009-.62.054a19.622 19.622 0 0 0-4.791 2.34c-.23.153-.269.278-.157.534a112.82 112.82 0 0 1 1.617 3.825c.16.404.296.372.598.167a18.565 18.565 0 0 1 4.95-2.35c.269-.083.27-.198.166-.396L20.9 11.694zm-4.85 20.274c-.06-.146-.123-.293-.184-.438a.948.948 0 0 0-.194-.457l-.357-.839c-.589-1.5-1.219-2.986-1.89-4.453l-.356-.84a.948.948 0 0 0-.194-.457l-.187-.437a2 2 0 0 0-.292-.68l-.181-.43a.355.355 0 0 0-.12-.288l-.194-.46c.028-.05.014-.084-.043-.1l-.272-.645-2.132-5.059c-.145-.56.011-1.038.457-1.371.467-.348.987-.345 1.477-.008.138.095.21.14.353-.004a24.571 24.571 0 0 1 5.402-4.16c.015-.008.008-.057.01-.087l3.017-1.28c.512-.014.97-.247 1.457-.366 1.81-.444 3.658-.595 5.51-.725 1.197-.084 2.397-.142 3.559-.49a4.792 4.792 0 0 0 1.536-.77c.797-.603 1.595-.274 1.762.716.43 2.544.864 5.087 1.282 7.633.101.613.543 1.015.864 1.48 1.413 2.043 2.866 4.058 4.302 6.085.502.708.42 1.212-.277 1.732-1.266.943-2.739 1.284-4.27 1.452-1.81.198-3.635.224-5.437.508-3.181.503-5.986 1.806-8.47 3.846a35.916 35.916 0 0 0-2.41 2.19c-.237.234-.262.408-.134.708 1.284 2.993 2.55 5.994 3.825 8.99.221.521.206 1.008-.16 1.45-.341.416-.785.525-1.298.395-.33-.083-.563-.297-.751-.57a15.569 15.569 0 0 0-.756-1.744l-.18-.421a.637.637 0 0 0-.158-.385l-.164-.385a14.926 14.926 0 0 0-.75-1.764l-.165-.394a77.8 77.8 0 0 0-1.73-4.076l-.274-.645c.028-.05.013-.083-.043-.099l-.195-.46a.353.353 0 0 0-.124-.284c-.06-.144-.122-.288-.183-.43a2 2 0 0 0-.287-.684z"/>
    </g>
</svg>
