<svg xmlns="http://www.w3.org/2000/svg" width="50" height="50" viewBox="0 0 50 50">
    <g fill="none" fill-rule="evenodd">
        <circle cx="25" cy="25" r="25" fill="#253C4F"/>
        <path fill="#FFF" d="M39.211 16.43c-.234 1.432-1.57 3.198-4.497 4.57.144-1.348.158-2.668.113-3.835.054-.213.041-.426-.03-.624a32.302 32.302 0 0 0-.13-1.574c.212-.301.502-.608.883-.849.84-.53 1.731-.521 2.727.027.74.407 1.097 1.282.934 2.285zm-23.038.666A26.724 26.724 0 0 0 16.28 21c-2.923-1.372-4.257-3.136-4.492-4.565-.164-1.005.195-1.882.938-2.29 1-.548 1.896-.557 2.74-.026.37.233.655.53.866.822-.054.495-.104 1.07-.14 1.702-.038.147-.048.3-.02.453zm23.729-5.28c-1.71-1.055-3.522-1.089-5.103-.092a5.426 5.426 0 0 0-1.245 1.113H17.446a5.427 5.427 0 0 0-1.246-1.113c-1.58-.995-3.392-.963-5.102.093-1.554.958-2.334 2.827-2.035 4.876.45 3.083 3.07 5.741 7.15 7.378.448 1.836 1.19 3.55 2.383 4.815a26.379 26.379 0 0 0 1.539 1.508h-.001l.004.003c.258.233.507.448.747.643.621.644 1.451 1.797 1.777 3.581.18 1.261-.883 1.754-2.29 1.755h-1.533c-.376 0-.764.295-.862.655l-.903 3.313c-.098.36.129.656.505.656H33.67c.376 0 .603-.295.504-.656l-.903-3.313c-.099-.36-.486-.655-.862-.655h-1.802c-1.407-.001-2.47-.494-2.29-1.755.326-1.784 1.156-2.936 1.777-3.58a20.502 20.502 0 0 0 .75-.646c.482-.435.994-.931 1.539-1.51 1.192-1.262 1.932-2.973 2.38-4.805 4.093-1.636 6.724-4.299 7.174-7.388.299-2.049-.481-3.917-2.035-4.875z"/>
    </g>
</svg>
