<svg xmlns="http://www.w3.org/2000/svg" width="20" height="20" viewBox="0 0 20 20">
    <path fill="#253C4F" fill-rule="nonzero" d="M10 0c5.524 0 10 4.476 10 10s-4.476 10-10 10S0 15.524 0 10 4.476 0 10 0zm5.161 17v-.548a2.583 2.583 0 0 0-2.58-2.581c-.452 0-1.105.46-2.581.46-1.472 0-2.133-.46-2.58-.46a2.583 2.583 0 0 0-2.581 2.58V17A8.664 8.664 0 0 0 10 18.71 8.664 8.664 0 0 0 15.161 17zm1.234-1.109A8.663 8.663 0 0 0 18.71 10c0-4.802-3.908-8.71-8.71-8.71-4.802 0-8.71 3.908-8.71 8.71 0 2.274.883 4.339 2.315 5.891a3.858 3.858 0 0 1 3.814-3.31c.831 0 1.226.46 2.581.46s1.754-.46 2.58-.46c1.948 0 3.541 1.44 3.815 3.31zM10 4.516a3.548 3.548 0 1 1 0 7.097 3.548 3.548 0 0 1 0-7.097zm0 5.807a2.26 2.26 0 0 0 2.258-2.258A2.26 2.26 0 0 0 10 5.806a2.26 2.26 0 0 0-2.258 2.259A2.26 2.26 0 0 0 10 10.323z"/>
</svg>
