<svg xmlns="http://www.w3.org/2000/svg" width="50" height="50" viewBox="0 0 50 50">
    <g fill="none" fill-rule="evenodd">
        <circle cx="25" cy="25" r="25" fill="#F0EBD9"/>
        <path fill="#3F5C75" fill-rule="nonzero" d="M36.7 20.75c-1.82 0-3.3-1.457-3.3-3.25s1.48-3.25 3.3-3.25c1.82 0 3.3 1.457 3.3 3.25s-1.48 3.25-3.3 3.25zm-26.4 2.438c1.82 0 3.3 1.457 3.3 3.25 0 1.792-1.48 3.25-3.3 3.25-1.82 0-3.3-1.458-3.3-3.25 0-1.793 1.48-3.25 3.3-3.25zm23.182-1.89l-2.475 1.829-.99-1.3 2.476-1.829.99 1.3zM36.7 30.5c1.82 0 3.3 1.457 3.3 3.25S38.52 37 36.7 37c-1.82 0-3.3-1.457-3.3-3.25 0-.168.026-.335.052-.498l-4.94-2.92a5.782 5.782 0 0 1-4.187 1.793c-3.192 0-5.775-2.544-5.775-5.688 0-1.838.902-3.458 2.28-4.494l-2.115-4.458c-.057 0-.108.015-.165.015-1.82 0-3.3-1.457-3.3-3.25S16.73 11 18.55 11c1.82 0 3.3 1.457 3.3 3.25a3.2 3.2 0 0 1-.887 2.204l2.104 4.438a5.685 5.685 0 0 1 1.258-.147c3.192 0 5.775 2.544 5.775 5.687 0 .635-.129 1.234-.325 1.803l4.95 2.925a3.325 3.325 0 0 1 1.975-.66zm-12.375-1.625c1.366 0 2.475-1.092 2.475-2.438 0-1.345-1.109-2.437-2.475-2.437s-2.475 1.092-2.475 2.438c0 1.345 1.109 2.437 2.475 2.437zm-9.487-1.625v-1.625h2.475v1.625h-2.475z"/>
    </g>
</svg>
