<svg xmlns="http://www.w3.org/2000/svg" width="50" height="50" viewBox="0 0 50 50">
    <g fill="none" fill-rule="evenodd">
        <circle cx="25" cy="25" r="25" fill="#F00"/>
        <path fill="#FFF" fill-rule="nonzero" d="M38 30.39c0 .425-.195.81-.497 1.054-.234.872-.234 3.359 0 4.231.302.25.497.635.497 1.06v.906c0 .753-.597 1.359-1.34 1.359H18.358C15.4 39 13 36.564 13 33.562V15.439C13 12.436 15.4 10 18.357 10h18.304c.742 0 1.339.606 1.339 1.36v19.03zM21.36 16.18c-1.535 1.302-1.619 3.636-.252 5.046l4.727 4.849a.77.77 0 0 0 1.105 0l4.726-4.849c1.373-1.41 1.295-3.744-.24-5.047-1.333-1.132-3.326-.928-4.553.329l-.48.493-.48-.493c-1.222-1.257-3.214-1.461-4.554-.329zm12.924 19.195c-.107-.969-.107-2.656 0-3.625H18.357c-.982 0-1.786.816-1.786 1.813 0 1.002.798 1.812 1.786 1.812h15.927z"/>
    </g>
</svg>
